<svg width="283.6700439453125px" height="131.60498046875px" xmlns="http://www.w3.org/2000/svg" viewBox="108.16497802734375 9.197509765625 283.6700439453125 131.60498046875" style="background: rgba(0, 0, 0, 0);" preserveAspectRatio="xMidYMid"><defs><linearGradient id="editing-gradient-gradient" x1="0" x2="1" y1="0.5" y2="0.5" gradientUnits="objectBoundingBox"><stop offset="0" stop-color="#f0f"></stop><stop offset="1" stop-color="#0ff"></stop></linearGradient></defs><g><g transform="translate(152.5900011062622, 99.43500137329102)"><path d="M32.81-35.25L20.44-17.69L34.44 0L25.81 0L15.56-13.50L15.56-22.19L24.31-35.25L32.81-35.25ZM13 0L5.38 0L5.38-48.56L13-48.56L13 0ZM63.69-38.94L63.69-38.94L63.69-38.94Q63.38-39.06 62.94-39.38L62.94-39.38L62.94-39.38Q62.50-39.69 61.69-39.97L61.69-39.97L61.69-39.97Q60.88-40.25 59.63-40.44L59.63-40.44L59.63-40.44Q58.38-40.63 56.44-40.50L56.44-40.50L56.44-46.81L56.44-46.81Q59.19-46.75 62.03-46.22L62.03-46.22L62.03-46.22Q64.88-45.69 66.63-44.56L66.63-44.56L66.63-44.56Q66.25-43.75 65.75-42.78L65.75-42.78L65.75-42.78Q65.25-41.81 64.81-40.97L64.81-40.97L64.81-40.97Q64.38-40.13 64.06-39.56L64.06-39.56L64.06-39.56Q63.75-39 63.69-38.94ZM42.13-33.94L42.13-33.94L42.13-33.94Q42.13-36.69 43.06-38.88L43.06-38.88L43.06-38.88Q44-41.06 45.59-42.72L45.59-42.72L45.59-42.72Q47.19-44.38 49.34-45.34L49.34-45.34L49.34-45.34Q51.50-46.31 53.88-46.63L53.88-46.63L53.88-40.06L53.88-40.06Q51.88-39.38 50.56-37.66L50.56-37.66L50.56-37.66Q49.25-35.94 49.25-34.19L49.25-34.19L49.25-34.19Q49.25-31.75 50.56-30.25L50.56-30.25L50.56-30.25Q51.88-28.75 53.88-27.63L53.88-27.63L53.88-20.50L53.88-20.50Q51.81-21.50 49.75-22.66L49.75-22.66L49.75-22.66Q47.69-23.81 46-25.38L46-25.38L46-25.38Q44.31-26.94 43.22-29L43.22-29L43.22-29Q42.13-31.06 42.13-33.94ZM41.81-3.06L43.13-8.44L43.13-8.44Q44-7.94 45.34-7.47L45.34-7.47L45.34-7.47Q46.69-7 48.13-6.59L48.13-6.59L48.13-6.59Q49.56-6.19 51-5.94L51-5.94L51-5.94Q52.44-5.69 53.69-5.69L53.69-5.69L53.88-5.69L53.88 0.25L53.75 0.25L53.75 0.25Q52.25 0.25 50.66 0.09L50.66 0.09L50.66 0.09Q49.06-0.06 47.44-0.44L47.44-0.44L47.44-0.44Q45.81-0.81 44.34-1.47L44.34-1.47L44.34-1.47Q42.88-2.13 41.81-3.06L41.81-3.06ZM56.44-19.06L56.44-26.38L56.44-26.38Q58.50-25.44 60.66-24.38L60.66-24.38L60.66-24.38Q62.81-23.31 64.56-21.78L64.56-21.78L64.56-21.78Q66.31-20.25 67.44-18.06L67.44-18.06L67.44-18.06Q68.56-15.88 68.56-12.63L68.56-12.63L68.56-12.63Q68.56-10.38 67.72-8.25L67.72-8.25L67.72-8.25Q66.88-6.13 65.34-4.41L65.34-4.41L65.34-4.41Q63.81-2.69 61.56-1.50L61.56-1.50L61.56-1.50Q59.31-0.31 56.44 0.06L56.44 0.06L56.44-5.94L56.44-5.94Q61.56-7.19 61.56-12.75L61.56-12.75L61.56-12.75Q61.56-14.94 60.13-16.38L60.13-16.38L60.13-16.38Q58.69-17.81 56.44-19.06L56.44-19.06ZM86.06-30.13L86.06-10.69L86.06-10.69Q86.06-8.56 86.63-7.38L86.63-7.38L86.63-7.38Q87.19-6.19 88.22-5.56L88.22-5.56L88.22-5.56Q89.25-4.94 90.53-4.78L90.53-4.78L90.53-4.78Q91.81-4.63 93.25-4.63L93.25-4.63L93.25 0L93.25 0Q92.44 0.13 91.63 0.19L91.63 0.19L91.63 0.19Q90.94 0.25 89.97 0.28L89.97 0.28L89.97 0.28Q89 0.31 88.06 0.31L88.06 0.31L88.06 0.31Q87.13 0.31 86.16 0.25L86.16 0.25L86.16 0.25Q85.19 0.19 84.50 0.06L84.50 0.06L84.50 0.06Q82.38-0.31 81.19-1.78L81.19-1.78L81.19-1.78Q80-3.25 79.41-5.03L79.41-5.03L79.41-5.03Q78.81-6.81 78.66-8.50L78.66-8.50L78.66-8.50Q78.50-10.19 78.50-11.13L78.50-11.13L78.50-30.13L73.88-30.13L73.88-35.25L78.50-35.25L78.50-45.25L86.06-45.25L86.06-35.25L91.69-35.25L91.69-30.13L86.06-30.13ZM108.25-10.63L108.25-10.63L108.25-10.63Q108.25-7.81 109.41-6.44L109.41-6.44L109.41-6.44Q110.56-5.06 112.75-4.81L112.75-4.81L112.75 0.25L112.75 0.25Q112.50 0.31 111.94 0.31L111.94 0.31L111.94 0.31Q109.81 0.31 107.84-0.25L107.84-0.25L107.84-0.25Q105.88-0.81 104.38-2.06L104.38-2.06L104.38-2.06Q102.88-3.31 102.03-5.38L102.03-5.38L102.03-5.38Q101.19-7.44 101.19-10.44L101.19-10.44L101.19-10.44Q101.19-13.31 102.41-15.41L102.41-15.41L102.41-15.41Q103.63-17.50 105.53-18.84L105.53-18.84L105.53-18.84Q107.44-20.19 109.88-20.84L109.88-20.84L109.88-20.84Q112.31-21.50 114.81-21.50L114.81-21.50L117.56-21.50L117.56-17.06L116.19-17.06L116.19-17.06Q114.94-17.06 113.56-16.81L113.56-16.81L113.56-16.81Q112.19-16.56 111-15.88L111-15.88L111-15.88Q109.81-15.19 109.03-13.91L109.03-13.91L109.03-13.91Q108.25-12.63 108.25-10.63ZM127.69-10.94L127.69-10.44L127.69-10.44Q127.69-9.94 127.75-8.97L127.75-8.97L127.75-8.97Q127.81-8 128-7L128-7L128-7Q128.19-6 128.59-5.19L128.59-5.19L128.59-5.19Q129-4.38 129.69-4.13L129.69-4.13L127.69 0.06L127.69 0.06Q126.88 0.06 125.97-0.31L125.97-0.31L125.97-0.31Q125.06-0.69 124.22-1.38L124.22-1.38L124.22-1.38Q123.38-2.06 122.78-2.91L122.78-2.91L122.78-2.91Q122.19-3.75 121.88-4.75L121.88-4.75L121.88-4.75Q121.25-3.19 119.41-1.97L119.41-1.97L119.41-1.97Q117.56-0.75 115.31-0.19L115.31-0.19L115.31-4.94L115.31-4.94Q116.81-5.25 118.03-6.16L118.03-6.16L118.03-6.16Q119.25-7.06 120.13-8.31L120.13-8.31L120.13-21.50L120.13-21.50Q120.13-24.56 119.81-26.38L119.81-26.38L119.81-26.38Q119.50-28.19 118.75-29.03L118.75-29.03L118.75-29.03Q118-29.88 116.91-30.09L116.91-30.09L116.91-30.09Q115.81-30.31 114.31-30.31L114.31-30.31L114.31-30.31Q112.94-30.31 111.72-29.97L111.72-29.97L111.72-29.97Q110.50-29.63 109.47-29.16L109.47-29.16L109.47-29.16Q108.44-28.69 107.66-28.13L107.66-28.13L107.66-28.13Q106.88-27.56 106.50-27.25L106.50-27.25L103.69-31.56L103.69-31.56Q104.31-32.25 105.56-32.97L105.56-32.97L105.56-32.97Q106.81-33.69 108.44-34.25L108.44-34.25L108.44-34.25Q110.06-34.81 111.97-35.16L111.97-35.16L111.97-35.16Q113.88-35.50 115.94-35.50L115.94-35.50L115.94-35.50Q117.81-35.50 119.59-35.13L119.59-35.13L119.59-35.13Q121.38-34.75 122.84-33.88L122.84-33.88L122.84-33.88Q124.31-33 125.41-31.53L125.41-31.53L125.41-31.53Q126.50-30.06 126.94-27.88L126.94-27.88L126.94-27.88Q127.38-25.69 127.53-23.47L127.53-23.47L127.53-23.47Q127.69-21.25 127.69-19.06L127.69-19.06L127.69-10.94ZM149.69-30.13L149.69-10.69L149.69-10.69Q149.69-8.56 150.25-7.38L150.25-7.38L150.25-7.38Q150.81-6.19 151.84-5.56L151.84-5.56L151.84-5.56Q152.88-4.94 154.16-4.78L154.16-4.78L154.16-4.78Q155.44-4.63 156.88-4.63L156.88-4.63L156.88 0L156.88 0Q156.06 0.13 155.25 0.19L155.25 0.19L155.25 0.19Q154.56 0.25 153.59 0.28L153.59 0.28L153.59 0.28Q152.63 0.31 151.69 0.31L151.69 0.31L151.69 0.31Q150.75 0.31 149.78 0.25L149.78 0.25L149.78 0.25Q148.81 0.19 148.13 0.06L148.13 0.06L148.13 0.06Q146-0.31 144.81-1.78L144.81-1.78L144.81-1.78Q143.63-3.25 143.03-5.03L143.03-5.03L143.03-5.03Q142.44-6.81 142.28-8.50L142.28-8.50L142.28-8.50Q142.13-10.19 142.13-11.13L142.13-11.13L142.13-30.13L137.50-30.13L137.50-35.25L142.13-35.25L142.13-45.25L149.69-45.25L149.69-35.25L155.31-35.25L155.31-30.13L149.69-30.13ZM164.94-25.19L164.94-25.19L164.94-25.19Q164.94-27.56 165.81-29.47L165.81-29.47L165.81-29.47Q166.69-31.38 168.25-32.72L168.25-32.72L168.25-32.72Q169.81-34.06 171.78-34.84L171.78-34.84L171.78-34.84Q173.75-35.63 175.88-35.81L175.88-35.81L175.88-29.56L175.88-29.56Q174.25-29.25 173.34-28.25L173.34-28.25L173.34-28.25Q172.44-27.25 172.44-25.44L172.44-25.44L172.44-25.44Q172.44-23.94 173.41-23.03L173.41-23.03L173.41-23.03Q174.38-22.13 175.88-21.44L175.88-21.44L175.88-14.75L175.88-14.75Q174.81-15.06 173.72-15.47L173.72-15.47L173.72-15.47Q172.63-15.88 171.56-16.38L171.56-16.38L171.56-16.38Q168.25-18.13 166.59-20.06L166.59-20.06L166.59-20.06Q164.94-22 164.94-25.19ZM188.25-33L185.81-27.81L185.81-27.81Q184.13-28.69 182.22-29.13L182.22-29.13L182.22-29.13Q180.31-29.56 178.44-29.69L178.44-29.69L178.44-35.88L178.44-35.88Q181.25-35.75 183.63-35.09L183.63-35.09L183.63-35.09Q186-34.44 188.25-33L188.25-33ZM165.06-2.81L168.25-7.88L168.25-7.88Q169.50-7 171.22-6.25L171.22-6.25L171.22-6.25Q172.94-5.50 175.56-5.50L175.56-5.50L175.88-5.50L175.88 0.31L175.88 0.31Q174.31 0.31 173 0.22L173 0.22L173 0.22Q171.69 0.13 170.41-0.22L170.41-0.22L170.41-0.22Q169.13-0.56 167.81-1.19L167.81-1.19L167.81-1.19Q166.50-1.81 165.06-2.81L165.06-2.81ZM178.44-13.81L178.44-20.44L178.44-20.44Q180.31-19.81 182.25-19.06L182.25-19.06L182.25-19.06Q184.19-18.31 185.78-17.19L185.78-17.19L185.78-17.19Q187.38-16.06 188.41-14.41L188.41-14.41L188.41-14.41Q189.44-12.75 189.44-10.25L189.44-10.25L189.44-10.25Q189.44-7.81 188.56-6L188.56-6L188.56-6Q187.69-4.19 186.22-2.88L186.22-2.88L186.22-2.88Q184.75-1.56 182.75-0.81L182.75-0.81L182.75-0.81Q180.75-0.06 178.44 0.19L178.44 0.19L178.44-5.75L178.44-5.75Q180.56-6.13 181.72-7.09L181.72-7.09L181.72-7.09Q182.88-8.06 182.88-9.69L182.88-9.69L182.88-9.69Q182.88-11.31 181.59-12.22L181.59-12.22L181.59-12.22Q180.31-13.13 178.44-13.81L178.44-13.81Z" fill="url(#editing-gradient-gradient)"></path></g></g><style>text {
  font-size: 64px;
  font-family: Arial Black;
  dominant-baseline: central;
  text-anchor: middle;
}</style></svg>