<?xml version="1.0" encoding="iso-8859-1"?>
<!-- Generator: Adobe Illustrator 19.0.0, SVG Export Plug-In . SVG Version: 6.00 Build 0)  -->
<svg version="1.1" id="Capa_1" xmlns="http://www.w3.org/2000/svg" xmlns:xlink="http://www.w3.org/1999/xlink" x="0px" y="0px"
	 viewBox="0 0 512 512" style="enable-background:new 0 0 512 512;" xml:space="preserve">
<g>
	<g>
		<path d="M141.972,250.801c-4.211-7.956-11.985-12.705-20.797-12.705c-8.367,0-15.841,3.593-20.508,9.859
			c-4.185,5.619-6.057,12.621-5.413,20.251c0.229,2.696,1.743,5.144,4.052,6.55c1.342,0.817,2.874,1.233,4.412,1.233
			c1.101-0.001,2.204-0.214,3.243-0.645l30.75-12.757c2.203-0.913,3.93-2.723,4.738-4.967
			C143.255,255.386,143.082,252.902,141.972,250.801z M113.322,256.337c1.782-1.978,4.359-3.051,7.52-3.12L113.322,256.337z"/>
	</g>
</g>
<g>
	<g>
		<path d="M299.994,237.403c-16.426,0-28.348,12.479-28.348,29.674c0,16.64,12.58,29.674,28.641,29.674
			c16.161,0,28.348-12.757,28.348-29.674C328.635,250.437,316.055,237.403,299.994,237.403z M300.287,281.633
			c-7.583,0-13.523-6.394-13.523-14.556c0-8.707,5.317-14.556,13.23-14.556c7.583,0,13.523,6.394,13.523,14.556
			C313.517,275.647,308.077,281.633,300.287,281.633z"/>
	</g>
</g>
<g>
	<g>
		<path d="M466.068,237.403c-16.428,0-28.352,12.479-28.352,29.674c0,16.64,12.58,29.674,28.641,29.674
			c16.163,0,28.352-12.757,28.352-29.674C494.709,250.437,482.129,237.403,466.068,237.403z M466.359,281.633
			c-7.583,0-13.523-6.394-13.523-14.556c0-8.707,5.318-14.556,13.234-14.556c7.583,0,13.523,6.394,13.523,14.556
			C479.592,275.647,474.15,281.633,466.359,281.633z"/>
	</g>
</g>
<g>
	<g>
		<path d="M507.703,277.919c-3.749-1.84-8.278-0.295-10.118,3.451c-5.682,11.564-17.757,18.747-31.516,18.747
			c-19.677,0-34.516-14.205-34.516-33.04c0-18.527,15.288-33.04,34.805-33.04c13.715,0,25.7,7.16,31.278,18.685
			c1.819,3.758,6.341,5.331,10.097,3.511c3.758-1.818,5.331-6.339,3.511-10.097c-8.125-16.789-25.323-27.218-44.885-27.218
			c-12.246,0-23.332,4.049-31.929,10.864c0.301-2.023-0.149-4.108-1.316-5.85c-1.547-2.31-4.13-3.689-6.91-3.689h-22.972
			c-3.482,0-6.623,2.198-7.816,5.469c0,0,0,0,0,0.001l-12.216,33.522l-12.216-33.523c-1.193-3.271-4.334-5.469-7.815-5.469h-22.977
			c-2.781,0-5.363,1.379-6.91,3.689c-1.145,1.708-1.597,3.747-1.33,5.735c-3.347-2.635-7.096-4.872-11.207-6.625
			c-3.843-1.638-8.281,0.148-9.918,3.988c-1.638,3.84,0.147,8.281,3.987,9.918c12.327,5.257,19.986,16.802,19.986,30.13
			c0,18.527-15.288,33.04-34.804,33.04c-19.674,0-34.512-14.205-34.512-33.04c0-13.181,7.672-24.688,20.023-30.032
			c3.832-1.658,5.594-6.108,3.935-9.939c-1.657-3.83-6.104-5.595-9.938-3.936c-10.9,4.717-19.289,12.764-24.21,22.673
			c-4.734-16.124-19.19-26.921-37.805-26.921c-6.796,0-13.534,1.82-19.421,5.068c-1.49-2.258-4.05-3.75-6.95-3.75h-20.052
			c-4.587,0-8.319,3.732-8.319,8.318v11.134c-1.174-1.87-2.468-3.636-3.881-5.279c-8.728-10.136-21.438-15.494-36.756-15.494
			c-28.027,0-49.161,20.707-49.161,48.166c0,4.152,0.491,8.13,1.406,11.903H36.981v-73.922c0-4.587-3.731-8.318-8.318-8.318H8.319
			c-4.587,0-8.319,3.732-8.319,8.318v100.528c0,4.587,3.732,8.318,8.319,8.318h69.372c4.587,0,8.319-3.732,8.319-8.318v-5.445
			c9.218,9.445,22.703,15.1,38.477,15.1c13.664,0,28.697-5.506,38.26-13.715v4.061c0,4.587,3.732,8.318,8.319,8.318h20.048
			c4.587,0,8.319-3.732,8.319-8.318v-43.941c0-3.632,2.723-9.037,10.227-9.037c4.402,0,10.603,2.804,10.603,9.037v43.939
			c0,4.587,3.731,8.318,8.318,8.318h20.052c4.587,0,8.319-3.732,8.319-8.318v-14.222c8.493,14.373,24.412,23.864,43.045,23.864
			c25.87,0,46.546-18.072,49.536-42.127l14.664,35.63c1.289,3.129,4.308,5.151,7.692,5.151h22.62c3.384,0,6.404-2.022,7.693-5.152
			l14.63-35.548c3.008,24.015,23.547,42.045,49.239,42.045c19.566,0,36.842-10.421,45.084-27.198
			C512.994,284.29,511.45,279.76,507.703,277.919z M70.892,298.794H15.118v-86.929h6.747v73.922c0,4.587,3.731,8.318,8.318,8.318
			h40.71V298.794z M124.486,300.129c-21.784,0-36.421-13.279-36.421-33.045c0-18.841,14.635-33.048,34.043-33.048
			c10.783,0,19.531,3.541,25.296,10.236c2.908,3.38,5.105,7.611,6.477,12.419l-48.28,20.028c-2.673,1.112-4.547,3.479-5.015,6.335
			c-0.468,2.862,0.558,5.711,2.741,7.619c5.541,4.847,12.967,7.408,21.477,7.408c8.643,0,14.773-1.711,22.311-6.527l1.849,1.422
			C142.66,296.974,133.716,300.129,124.486,300.129z M136.652,280.205c-1.71,0.934-3.252,1.567-4.792,1.988L136.652,280.205z
			 M162.745,284.501l-10.337-7.947c-0.001,0-0.001,0-0.002-0.001c-0.988-0.759-2.115-1.266-3.29-1.519l13.629-5.654V284.501z
			 M184.313,261.654v37.139h-6.449v-63.436h6.45l-0.001,3.599c-0.043,2.925,1.621,5.679,4.36,6.958
			c0.409,0.19,0.827,0.343,1.251,0.456C186.281,250.751,184.313,256.244,184.313,261.654z M235.378,298.794v-37.139
			c0-15.12-13.078-24.155-25.72-24.155c-1.996,0-3.891,0.195-5.679,0.558c3.985-2.539,8.774-4.018,13.507-4.018
			c14.561,0,24.345,9.491,24.345,23.618v41.136H235.378z M389.953,298.772h-13.511l-26.098-63.411h8.065l16.977,46.587
			c1.195,3.268,4.335,5.464,7.814,5.464c3.479,0,6.619-2.196,7.816-5.47l16.975-46.581h8.061L389.953,298.772z"/>
	</g>
</g>
<g>
</g>
<g>
</g>
<g>
</g>
<g>
</g>
<g>
</g>
<g>
</g>
<g>
</g>
<g>
</g>
<g>
</g>
<g>
</g>
<g>
</g>
<g>
</g>
<g>
</g>
<g>
</g>
<g>
</g>
</svg>
