<?xml version="1.0" encoding="UTF-8" standalone="no"?>
<svg
   xmlns:dc="http://purl.org/dc/elements/1.1/"
   xmlns:cc="http://creativecommons.org/ns#"
   xmlns:rdf="http://www.w3.org/1999/02/22-rdf-syntax-ns#"
   xmlns:svg="http://www.w3.org/2000/svg"
   xmlns="http://www.w3.org/2000/svg"
   xmlns:sodipodi="http://sodipodi.sourceforge.net/DTD/sodipodi-0.dtd"
   xmlns:inkscape="http://www.inkscape.org/namespaces/inkscape"
   inkscape:version="1.0 (4035a4fb49, 2020-05-01)"
   sodipodi:docname="New AMD Radeon wordmark (2020).svg"
   viewBox="0 0 1260 195"
   height="195"
   width="1260"
   id="svg833"
   version="1.1">
  <metadata
     id="metadata839">
    <rdf:RDF>
      <cc:Work
         rdf:about="">
        <dc:format>image/svg+xml</dc:format>
        <dc:type
           rdf:resource="http://purl.org/dc/dcmitype/StillImage" />
        <dc:title></dc:title>
      </cc:Work>
    </rdf:RDF>
  </metadata>
  <defs
     id="defs837" />
  <sodipodi:namedview
     inkscape:current-layer="g845"
     inkscape:window-maximized="1"
     inkscape:window-y="-8"
     inkscape:window-x="-8"
     inkscape:cy="208.11469"
     inkscape:cx="702.49552"
     inkscape:zoom="0.77445028"
     showgrid="false"
     id="namedview835"
     inkscape:window-height="1017"
     inkscape:window-width="1920"
     inkscape:pageshadow="2"
     inkscape:pageopacity="0"
     guidetolerance="10"
     gridtolerance="10"
     objecttolerance="10"
     borderopacity="1"
     bordercolor="#666666"
     pagecolor="#ffffff" />
  <g
     id="g841"
     inkscape:label="Image"
     inkscape:groupmode="layer">
    <g
       id="g845">
      <path
         id="path861"
         d="m 0,190 v -5 H 17.5 35 V 150.5 116 h 31.919944 31.919943 l 19.830053,34.46611 19.83006,34.46611 20.68555,0.0339 20.68554,0.0339 -11.11598,-19.25 c -6.11379,-10.5875 -15.03437,-26 -19.8235,-34.25 l -8.70753,-15 5.3653,-1.22167 c 12.22261,-2.78307 22.3659,-11.19739 26.35687,-21.864211 C 173.81204,88.427348 174,85.68957 174,63.5 174,41.245921 173.81596,38.583147 171.9294,33.540853 169.1894,26.217547 161.51539,17.89148 154.19009,14.294236 L 148.5,11.5 74.25,11.225262 0,10.950523 V 5.4752616 0 h 630 630 V 97.5 195 H 630 0 Z m 240.73358,-5.25 c 0.53815,-0.6875 4.08075,-8.55168 7.87244,-17.47596 l 6.89398,-16.22596 39.63324,-0.024 39.63324,-0.024 7.49701,17.25 7.49702,17.25 19.11975,0.27159 C 380.20373,185.93244 388,185.66373 388,185.11261 388,184.60079 371.17505,145.32858 350.61121,97.841016 L 313.22243,11.5 295.36121,11.229568 277.5,10.959136 239.8939,97.729568 C 219.21055,145.45331 202.47461,184.8375 202.70292,185.25 c 0.22831,0.4125 8.65846,0.75 18.73365,0.75 13.46632,0 18.57772,-0.3311 19.29701,-1.25 z M 272,114.18542 c 0,-0.88444 22.45007,-52.977767 23.10257,-53.607395 0.29025,-0.280074 21.15718,46.806365 23.73076,53.548695 C 319.01748,114.60916 308.61185,115 295.58333,115 282.6125,115 272,114.63344 272,114.18542 Z m 845,11.52564 0.5,-59.788932 44.5,51.697252 c 24.475,28.43349 47.779,55.45101 51.7866,60.03894 L 1221.0732,186 H 1238.5366 1256 V 98.5 11 h -17.4922 -17.4922 L 1220.7578,70.957893 1220.5,130.91579 1169,70.999472 1117.5,11.083157 1099.25,11.041579 1081,11 v 86.833333 c 0,47.758337 0.3103,87.143597 0.6895,87.522797 0.3792,0.37921 8.3667,0.56671 17.75,0.41667 L 1116.5,185.5 Z M 572.45915,182.9294 c 7.74319,-2.8971 15.48767,-10.23777 19.13567,-18.13792 L 594.5,158.5 V 98 37.5 l -2.63517,-5.620011 C 588.15841,23.9753 582.86945,18.553419 575.16425,14.759685 L 568.54372,11.5 494.27186,11.231264 420,10.962529 V 28.481264 46 l 68.25,0.01531 c 37.5375,0.0084 68.81667,0.375057 69.50927,0.814744 0.99102,0.629142 1.20404,11.649297 1,51.734687 L 558.5,149.5 507.25,149.75908 456,150.01816 V 115.00908 80 h -18 -18 v 52.5 52.5 h 73.46249 c 71.84892,0 73.58404,-0.0455 78.99666,-2.0706 z M 815,167.5 V 150 H 745.5 676 V 133 116 H 745.5 815 V 98 80 h -87 -87 v 52.5 52.5 h 87 87 z m 200.5,14.53861 c 7.301,-3.59414 14.7172,-11.4206 17.5962,-18.5696 L 1035.5,157.5 v -59 c 0,-55.474021 -0.1132,-59.298812 -1.8941,-64 -2.6612,-7.024997 -7.8599,-13.817383 -13.3674,-17.465421 -9.2777,-6.145299 -9.0145,-6.124569 -73.85041,-5.815393 L 887.5,11.5 l -5.62001,2.635165 c -7.90407,3.706139 -13.32654,8.995444 -17.12031,16.699874 L 861.5,37.454853 861.21882,95.94544 c -0.27445,57.09044 -0.2306,58.65711 1.83173,65.4469 1.80838,5.9537 3.00195,7.84481 8.28118,13.12092 10.98004,10.97353 6.96205,10.44923 78.16827,10.20013 l 61,-0.21339 z M 897.67573,149.3424 C 897.30408,148.97075 897,125.83981 897,97.940322 c 0,-45.333301 0.16817,-50.790877 1.58179,-51.333333 2.38171,-0.91395 98.72437,-0.699421 100.17748,0.223068 0.99102,0.629142 1.20404,11.649297 1,51.734687 L 999.5,149.5 l -50.57427,0.25907 c -27.81584,0.14249 -50.87834,-0.045 -51.25,-0.41667 z M 815,28.5 V 11 H 728 641 V 28.5 46 h 87 87 z M 0,63.006845 V 46 h 68.377555 c 57.027135,0 68.568305,0.229838 69.526665,1.384596 0.7838,0.944412 1.06116,6.269491 0.87245,16.75 L 138.5,79.5 69.25,79.756845 0,80.013691 Z"
         style="fill:#fefefe" />
      <path
         id="path847"
         d="M 1,133 V 81 h 68.3 c 51.78889,0 68.59009,-0.290093 69.5,-1.2 1.26456,-1.26456 1.77748,-29.131531 0.59301,-32.218213 C 138.84764,46.160585 131.79194,46 69.893011,46 H 1 V 29 12 h 72.462487 c 70.837553,0 72.586593,0.04643 77.996663,2.070599 7.78725,2.913585 15.50242,10.244208 19.0894,18.137917 2.78348,6.1255 2.86972,6.824035 3.269,26.477354 0.58421,28.756043 -1.02961,36.164516 -9.99708,45.89308 -4.87005,5.28337 -12.59452,9.25165 -19.63106,10.08502 -2.85418,0.33804 -5.18941,0.73965 -5.18941,0.89246 0,0.32022 35.16192,61.30281 38.16651,66.19357 L 179.16312,185 159.33156,184.9863 139.5,184.97258 119.49037,150.23629 99.480732,115.5 67.240366,115.23615 35,114.97229 V 149.98615 185 H 18 1 Z m 202.54135,50.77198 C 203.81384,183.07239 220.61087,144.25 240.86807,97.5 l 36.83128,-85 17.43056,-0.27218 17.43056,-0.272179 36.69079,84.772179 c 20.17994,46.6247 36.97698,85.55968 37.32676,86.52218 0.59102,1.62635 -0.66563,1.75 -17.78512,1.75 h -18.42108 l -7.4925,-17.25 -7.49249,-17.25 -40.06715,-0.26124 -40.06714,-0.26123 -7.42531,17.26123 -7.42531,17.26124 -18.67801,0.27198 c -14.79276,0.21541 -18.57495,0.007 -18.18256,-1 z M 320,115.45154 c 0,-2.09751 -24.47071,-56.380831 -25.12245,-55.729087 -0.64951,0.649505 -16.3715,36.260954 -23.41098,53.027547 l -1.36452,3.25 h 24.94898 C 308.77296,116 320,115.75319 320,115.45154 Z m 101,17.58528 V 81 h 17 17 v 35 35 h 51.37756 c 42.16479,0 51.58048,-0.24451 52.50923,-1.3636 0.8172,-0.98466 1.05965,-15.50457 0.87245,-52.249996 L 559.5,46.5 490.25,46.243155 421,45.986309 V 28.968416 11.950523 l 74.25,0.274739 74.25,0.274738 4.57557,2.254766 c 7.43609,3.664382 12.55213,8.743563 16.13243,16.016181 l 3.292,6.686998 V 98.478973 159.5 l -2.77194,5.64286 c -3.3762,6.87297 -9.96348,13.13894 -17.55291,16.69673 L 567.5,184.5 494.25,184.78682 421,185.07365 Z M 641,133 V 81 H 727.5 814 V 97.993155 114.98631 L 744.75,115.24315 675.5,115.5 v 17.5 17.5 l 69.25,0.25685 69.25,0.25684 V 168.00685 185 H 727.5 641 Z m 248.92045,51.01264 c -9.98497,-1.74008 -20.00383,-9.41016 -24.64998,-18.87113 L 862.5,159.5 V 98 36.5 l 2.46807,-5 C 868.13171,25.090832 875.13042,18.087546 881.5,14.957234 L 886.5,12.5 h 62 62 l 4.4693,2.382212 c 7.0046,3.73352 9.8015,6.132561 13.486,11.567511 6.6586,9.82208 6.6545,9.773928 6.3333,74.188877 L 1034.5,158.5 l -2.8074,6 c -3.5375,7.56058 -10.9447,14.64622 -18.5043,17.70125 -5.6841,2.29703 -5.7305,2.29887 -62.1883,2.45411 -31.075,0.0855 -58.5608,-0.20378 -61.07955,-0.64272 z M 999.32051,149.75 c 1.57119,-1.15338 1.68259,-5.19224 1.44109,-52.25 l -0.2616,-51 h -52 -52 l -0.25918,51.435309 c -0.20401,40.485471 0.009,51.605481 1,52.234691 0.69255,0.43965 23.56067,0.80627 50.81805,0.81469 38.09223,0.0118 49.95285,-0.27391 51.26164,-1.23469 z M 1082,98.5 V 12 l 17.75,0.07079 17.75,0.07079 51.5,59.983113 51.5,59.983117 0.2578,-60.05391 L 1221.0156,12 H 1238.0078 1255 V 98.5 185 h -16.9644 -16.9644 L 1168.7856,124.29871 1116.5,63.597419 1116.2423,124.29871 1115.9845,185 H 1098.9923 1082 Z M 641,29 V 12 H 727.5 814 V 29 46 H 727.5 641 Z"
         style="fill:#000000" />
    </g>
  </g>
</svg>
